<svg width="30" height="26" viewBox="0 0 30 26" fill="none" xmlns="http://www.w3.org/2000/svg">
<path d="M21.4936 0.581879C18.9911 0.568505 16.612 1.66759 15 3.58184C13.398 1.6545 11.0123 0.552296 8.50628 0.581879C3.80838 0.581879 0 4.39026 0 9.08816C0 17.1389 14.0506 24.9995 14.6203 25.3034C14.8501 25.4569 15.1498 25.4569 15.3797 25.3034C15.9494 24.9995 30 17.2527 30 9.08816C30 4.39026 26.1916 0.581879 21.4936 0.581879ZM15 23.7844C12.7974 22.4933 1.51899 15.6199 1.51899 9.08816C1.51899 5.2292 4.64732 2.1008 8.50635 2.1008C10.8695 2.06976 13.0811 3.26173 14.3544 5.25267C14.613 5.6092 15.1117 5.68864 15.4682 5.43003C15.5363 5.3806 15.5962 5.32078 15.6456 5.25267C17.7574 2.02288 22.0878 1.11663 25.3176 3.22852C27.2948 4.52138 28.4849 6.72573 28.4809 9.08809C28.481 15.6957 17.2025 22.5312 15 23.7844Z" fill="black"/>
</svg>
