<svg width="30" height="30" viewBox="0 0 30 30" fill="none" xmlns="http://www.w3.org/2000/svg">
<g clip-path="url(#clip0_73_2)">
<path d="M29.9897 14.992L16.3177 0V8.98041H14.7295C10.7952 8.98041 7.09625 10.5125 4.31419 13.2946C1.53214 16.0767 0 19.7756 0 23.7101V30L2.6239 27.125C6.1338 23.2796 11.1161 21.0551 16.3177 21.0045V29.9842L29.9897 14.992ZM1.75804 25.4805V23.7101C1.75804 20.2453 3.1073 16.9876 5.55725 14.5377C8.0072 12.0877 11.2646 10.7384 14.7295 10.7384H18.0755V4.53667L27.6107 14.992L18.0755 25.4475V19.2458H16.4983C10.9492 19.2458 5.6131 21.5105 1.75804 25.4805Z" fill="black"/>
</g>
<defs>
<clipPath id="clip0_73_2">
<rect width="30" height="30" fill="white"/>
</clipPath>
</defs>
</svg>
